<?xml version="1.0" encoding="UTF-8"?> <svg xmlns="http://www.w3.org/2000/svg" width="2264" height="1026" viewBox="0 0 2264 1026" fill="none"><path d="M2264 0.947266C1820.93 47.8193 1376.97 98.2292 933.9 145.985C897.641 143.332 863.15 156.597 827.775 157.482C796.822 146.869 763.216 145.1 730.494 149.522C651.784 145.1 573.075 146.869 494.366 148.638C428.038 145.985 361.709 146.869 296.266 148.638C253.816 149.522 220.209 184.013 215.787 225.579C144.153 231.769 71.6344 239.729 0 247.688C73.4031 298.982 147.691 348.507 221.094 399.8C214.903 428.98 218.441 459.05 217.556 488.24C217.556 515.65 214.019 545.72 230.822 568.72C249.394 598.78 285.653 608.51 318.375 608.51C369.669 608.51 420.962 608.51 473.141 608.51C494.366 608.51 519.128 601.44 537.7 615.59C562.462 633.28 588.109 650.08 612.872 667.77L618.178 665.11C619.063 663.34 621.716 658.92 622.6 657.15C603.144 643.89 583.688 630.62 565.116 616.47C560.694 613.82 557.156 610.28 552.734 606.74C589.878 606.74 629.675 613.82 664.166 595.25C612.872 595.25 561.578 596.13 510.284 592.59C443.956 597.02 378.512 595.25 312.184 595.25C279.462 595.25 241.434 579.33 233.475 543.95C226.4 498.85 230.822 452.86 234.359 408.64C227.284 356.466 231.706 304.288 229.938 252.11C229.938 228.232 229.053 199.932 247.625 182.244C268.85 158.366 303.341 159.25 332.525 158.366C391.778 159.25 451.031 156.597 510.284 161.019C580.15 156.597 650.9 156.597 720.766 161.019C761.447 155.713 804.781 154.829 840.156 179.591C860.497 168.094 882.606 157.482 905.6 158.366C962.2 158.366 1018.8 157.482 1074.52 158.366C1101.05 158.366 1123.16 172.516 1145.27 185.782C1147.03 176.938 1148.8 167.21 1150.57 158.366C1208.06 158.366 1265.54 159.25 1323.03 158.366C1323.91 167.21 1325.68 175.169 1326.56 184.013C1365.48 183.129 1403.5 184.013 1442.42 184.013C1474.25 186.666 1498.13 156.597 1529.97 160.135C1596.3 160.135 1663.51 156.597 1729.84 162.788C1847.46 156.597 1965.08 161.019 2082.7 159.25C2082.7 305.172 2083.59 450.21 2082.7 596.13C1984.54 596.13 1885.49 596.13 1787.32 596.13C1770.52 597.02 1754.6 591.71 1738.68 590.83C1675.01 600.55 1609.56 595.25 1545 596.13C1516.7 597.02 1488.4 589.06 1465.41 571.37C1448.61 581.98 1431.8 593.48 1411.46 594.36C1364.59 597.9 1318.6 593.48 1271.73 597.02L1275.27 604.09C1334.52 613.82 1396.43 612.93 1453.91 597.02C1467.18 593.48 1481.33 597.02 1495.48 598.78C1522.89 604.09 1552.96 604.98 1576.84 620.89C1589.22 612.05 1603.37 605.86 1618.41 608.51C1777.59 607.63 1936.78 609.4 2095.97 608.51C2095.97 467.9 2095.97 327.282 2095.97 186.666C2095.97 175.169 2095.08 163.672 2097.74 153.06C2152.57 100.882 2209.17 52.2413 2264 0.947266ZM216.672 378.575C158.303 338.779 99.9344 300.75 44.2188 258.3C101.703 249.457 159.188 245.035 216.672 238.844C217.556 285.716 217.556 331.704 216.672 378.575ZM2067.67 145.985C1901.41 145.1 1735.14 146.869 1568 145.1C1540.58 144.216 1512.28 145.985 1487.52 157.482C1442.42 180.475 1390.24 168.094 1341.6 169.863C1339.83 164.557 1337.18 153.944 1335.41 148.638C1295.61 144.216 1255.81 146.869 1216.02 145.985C1190.37 145.985 1163.84 143.332 1139.96 153.944C1120.5 163.672 1101.05 149.522 1082.48 145.1C1461.87 100.882 1842.15 61.9692 2221.55 19.5192C2185.29 52.2412 2151.68 88.5003 2111.89 115.916C2101.28 130.066 2088.01 148.638 2067.67 145.985Z" fill="#FFFEFF"></path><path d="M792.4 719.06C771.175 704.91 743.76 706.68 718.997 702.26C717.229 704.91 714.575 710.22 712.807 712.87C739.338 717.29 765.869 722.6 792.4 719.06Z" fill="#FFFEFF"></path><path d="M707.5 732.32C745.528 760.62 786.209 784.5 824.237 812.8C827.775 811.03 835.734 806.61 839.272 804.84C795.938 776.54 755.256 744.71 710.153 719.94C708.384 722.6 707.5 729.67 707.5 732.32Z" fill="#FFFEFF"></path><path d="M1280.57 872.94C1231.93 918.04 1182.41 962.26 1133.77 1007.37C1078.05 972.88 1026.76 930.43 970.159 898.59C967.506 900.36 961.315 903.01 958.662 903.89C1017.03 945.46 1076.28 984.37 1135.54 1025.94C1195.67 971.11 1256.7 917.16 1315.95 862.33C1311.53 861.44 1301.8 859.68 1297.38 858.79C1291.19 863.21 1285.88 867.63 1280.57 872.94Z" fill="#FFFEFF"></path><path d="M1597.18 99.113C1697.12 86.732 1797.93 78.773 1897.87 65.507C1992.5 58.432 2086.24 42.513 2179.98 36.323C2155.22 61.085 2131.34 85.848 2111.89 115.916C2151.68 87.616 2185.29 52.241 2221.55 19.52C1842.15 61.97 1461.87 100.882 1082.47 145.101C1101.05 149.523 1120.5 163.673 1139.96 153.945C1163.84 143.332 1190.37 146.87 1216.02 145.985C1255.81 146.87 1295.61 144.216 1335.41 148.638C1333.64 143.332 1331.87 137.141 1330.1 131.835C1418.54 115.916 1507.86 111.495 1597.18 99.113Z" fill="#33A0CC"></path><path d="M2111.89 115.916C2131.34 86.7323 2155.22 61.0853 2179.98 36.3223C2085.36 41.6293 1991.61 58.4323 1897.87 65.5073C1797.93 79.6573 1697.12 86.7322 1597.18 99.1132C1507.86 111.494 1418.54 115.916 1330.1 131.835C1331.87 137.141 1333.64 142.447 1335.41 148.638C1337.17 153.944 1339.83 164.557 1341.6 169.863C1390.24 168.094 1442.42 180.475 1487.52 157.482C1513.17 145.985 1540.58 144.216 1568 145.1C1734.26 146.869 1900.52 145.1 2067.67 145.985C2088.01 148.638 2101.27 130.066 2111.89 115.916Z" fill="#2BC8EE"></path><path d="M706.616 561.64C707.5 467.9 706.616 374.154 707.5 281.294C696.888 281.294 687.16 281.294 676.547 280.41C675.663 375.922 676.547 471.43 675.663 567.83H669.472C630.56 568.72 590.763 567.83 551.85 567.83C551.85 556.33 552.735 544.84 552.735 533.34C551.85 416.6 551.85 300.75 552.735 184.013C587.225 184.013 621.716 182.244 656.206 184.013C667.703 184.013 675.663 193.741 685.391 199.932C731.378 184.013 798.591 165.441 831.313 214.082L834.85 212.313C841.041 208.775 848.116 205.238 854.306 201.7C864.035 197.279 873.763 191.972 884.375 189.319C938.322 179.591 993.153 185.782 1047.1 184.013C1073.63 184.897 1112.54 181.36 1125.81 211.429C1135.54 244.15 1129.35 279.525 1131.12 313.132C1131.12 384.77 1131.12 455.52 1130.23 527.15C1131.12 541.3 1131.12 555.45 1131.12 569.6C1131.12 574.02 1131.12 581.98 1131.12 585.52C1131.12 609.4 1131.12 632.39 1132.88 655.38L1140.84 661.58C1156.76 627.97 1154.99 589.94 1153.23 553.68C1154.99 555.45 1157.65 558.1 1159.42 559.87C1165.61 566.06 1171.8 571.37 1177.99 577.56C1185.95 574.02 1194.79 570.48 1202.75 567.83C1195.68 558.99 1187.72 551.03 1182.41 540.42C1175.33 514.77 1177.1 487.35 1177.99 460.82C1175.33 408.64 1181.53 356.466 1173.57 304.288C1166.49 304.288 1153.23 304.288 1147.03 303.404C1147.03 274.219 1147.03 245.035 1147.03 215.85C1168.26 205.238 1184.18 182.244 1208.94 184.013C1239.89 183.129 1270.85 184.013 1301.8 184.013C1301.8 189.319 1301.8 199.932 1301.8 206.122C1353.98 212.313 1406.16 207.891 1457.45 209.66C1457.45 241.497 1457.45 272.45 1457.45 304.288C1405.27 305.172 1353.98 304.288 1301.8 305.172C1301.8 332.588 1301.8 359.119 1301.8 386.53C1302.68 414.83 1301.8 444.02 1301.8 472.32C1312.41 473.2 1323.03 473.2 1333.64 474.09C1333.64 425.45 1333.64 377.691 1334.52 329.05C1375.2 329.05 1416.77 329.05 1457.45 329.05C1455.68 399.8 1460.99 470.55 1453.91 541.3C1445.95 562.53 1421.19 568.72 1400.85 568.72C1353.98 569.6 1306.22 569.6 1259.35 567.83C1263.77 577.56 1269.08 587.29 1273.5 597.9C1320.37 594.36 1366.36 598.78 1413.23 595.25C1433.57 594.36 1451.26 582.87 1467.18 572.25C1490.17 589.94 1518.47 597.9 1546.77 597.02C1611.33 596.13 1676.78 601.44 1740.45 591.71C1756.37 592.59 1772.29 597.9 1789.09 597.02C1887.26 597.02 1986.31 597.02 2084.47 597.02C2085.36 451.09 2084.47 306.057 2084.47 160.135C1966.85 161.904 1849.23 156.597 1731.61 163.672C1665.28 157.482 1598.07 161.019 1531.74 161.019C1499.9 158.366 1476.02 187.55 1444.18 184.897C1405.27 184.897 1367.24 184.897 1328.33 184.897C1327.45 176.054 1325.68 168.094 1324.79 159.25C1267.31 160.135 1209.83 159.25 1152.34 159.25C1150.57 168.094 1148.8 177.822 1147.03 186.666C1124.93 173.4 1102.82 159.25 1076.28 159.25C1019.68 158.366 963.085 158.366 907.369 159.25C883.491 159.25 861.381 168.979 841.925 180.475C806.55 156.597 763.216 156.597 722.535 161.904C652.669 156.597 581.919 157.482 512.053 161.904C451.031 156.597 391.778 160.135 332.525 159.25C303.341 159.25 268.85 159.25 247.625 183.129C229.053 200.816 229.938 229.116 229.938 252.994C230.822 305.172 227.285 357.35 234.36 409.53C230.822 454.63 226.4 500.62 233.475 544.84C241.435 580.21 279.463 595.25 312.185 596.13C378.513 597.02 443.956 597.9 510.285 593.48C561.578 597.02 612.872 596.13 664.166 596.13C678.316 589.94 692.466 582.87 706.616 577.56C706.616 573.14 706.616 565.18 706.616 561.64ZM1777.59 184.897C1819.16 184.897 1860.73 184.897 1901.41 184.897C1901.41 232.654 1903.18 280.41 1899.64 327.282C1908.48 334.357 1920.86 331.704 1931.48 334.357C1932.36 284.832 1931.48 234.422 1932.36 184.897C1973.93 184.013 2015.49 184.013 2057.06 184.897C2057.06 312.247 2056.17 439.6 2057.06 567.83C2015.49 568.72 1973.93 567.83 1932.36 567.83C1931.48 519.19 1932.36 470.55 1932.36 421.03C1921.75 421.03 1912.02 421.03 1901.41 421.03C1901.41 469.67 1901.41 518.31 1901.41 566.95C1859.84 566.95 1818.28 566.95 1777.59 566.95C1777.59 543.07 1774.94 520.08 1779.36 497.08C1775.83 393.61 1778.48 289.254 1777.59 184.897ZM1476.91 252.11C1477.79 233.538 1475.14 210.544 1491.94 197.279C1516.7 180.475 1547.66 185.782 1575.96 184.013C1626.37 185.782 1676.78 179.591 1726.3 188.435L1732.49 187.55C1743.1 198.163 1757.25 207.891 1757.25 224.694C1759.91 265.375 1757.25 306.057 1758.14 345.854C1716.57 345.854 1675.01 345.854 1633.44 345.854C1633.44 323.744 1633.44 301.635 1633.44 279.525C1622.83 280.41 1613.1 281.294 1602.49 283.063C1604.26 345.854 1601.6 409.53 1603.37 472.32C1613.1 472.32 1623.71 471.43 1633.44 471.43C1632.56 441.37 1633.44 412.18 1633.44 382.11C1675.01 382.11 1716.57 382.11 1758.14 382.11C1759.02 418.37 1759.91 453.75 1757.25 490.01C1761.68 513.88 1762.56 546.61 1737.8 559.87C1715.69 571.37 1689.16 566.95 1665.28 567.83C1613.1 566.06 1560.04 570.48 1507.86 565.18C1493.71 555.45 1477.79 543.95 1479.56 524.5C1479.56 478.51 1476.91 433.41 1480.44 387.42C1476.02 343.2 1477.79 298.097 1476.91 252.11ZM535.931 495.31C535.047 514.77 538.585 538.65 523.55 553.68C503.21 571.37 474.91 566.95 450.147 567.83C397.969 566.06 345.791 570.48 293.613 565.18C283 563.41 273.272 558.99 262.66 556.33V549.26C249.394 517.42 255.585 482.93 255.585 449.33C297.15 448.44 337.831 448.44 379.397 449.33C379.397 454.63 380.281 464.36 380.281 468.78C390.01 471.43 401.506 474.97 411.235 469.67C411.235 454.63 410.35 439.6 410.35 424.56C370.553 423.68 328.988 428.1 289.191 421.91C256.469 415.72 250.278 377.691 257.353 351.16C253.816 313.132 255.585 275.104 255.585 237.075C255.585 222.925 256.469 205.238 269.735 196.394C290.075 182.244 316.606 184.897 340.485 184.013C389.125 185.782 438.65 183.129 487.291 185.782C507.631 186.666 529.741 197.279 533.278 218.504C537.7 246.804 535.047 275.104 535.047 303.404C493.481 305.172 452.8 304.288 411.235 304.288C410.35 298.982 409.466 287.485 408.581 281.294C398.853 281.294 390.01 281.294 380.281 281.294C379.397 296.329 378.513 311.363 377.628 327.282C419.194 331.704 461.644 323.744 502.325 332.588C520.897 335.241 534.163 352.929 534.163 371.5C537.7 413.07 535.047 454.63 535.931 495.31Z" fill="#231F13"></path><path d="M849.884 326.397C849.884 406.88 850.768 487.35 849.884 567.83H856.075C895.872 568.72 934.784 567.83 974.581 567.83C974.581 520.08 974.581 472.32 974.581 424.56C984.309 424.56 994.921 424.56 1004.65 424.56C1004.65 460.82 1004.65 497.97 1005.53 534.23C1005.53 545.72 1005.53 557.22 1004.65 567.83C1046.22 567.83 1087.78 567.83 1129.35 568.72C1129.35 554.57 1129.35 540.42 1128.46 526.27C1129.35 454.63 1129.35 383.88 1129.35 312.247C1127.58 278.641 1134.65 243.266 1124.04 210.544C1111.66 180.475 1072.75 184.897 1045.33 183.128C991.384 184.897 936.553 178.707 882.606 188.435C871.993 191.088 862.265 196.394 852.537 200.816C847.231 243.266 849.884 284.832 849.884 326.397ZM1004.65 281.294C1004.65 298.097 1004.65 314.016 1004.65 330.819C994.921 329.935 984.309 328.166 974.581 326.397C973.696 312.247 973.696 297.213 973.696 283.063C984.309 282.178 994.037 281.294 1004.65 281.294Z" fill="#FFC929"></path><path d="M1477.79 525.38C1476.91 544.84 1492.83 556.33 1506.09 566.06C1558.27 572.25 1611.33 566.95 1663.51 568.72C1687.39 567.83 1713.92 572.25 1736.03 560.76C1760.79 547.49 1759.02 514.77 1755.48 490.89C1758.14 455.52 1757.25 419.26 1756.37 383C1714.8 383 1673.24 383 1631.67 383C1631.67 413.07 1631.67 442.25 1631.67 472.32C1621.94 472.32 1611.33 473.2 1601.6 473.2C1599.83 410.41 1602.49 346.738 1600.72 283.947C1610.45 283.063 1621.06 281.294 1631.67 280.41C1631.67 302.519 1631.67 324.628 1631.67 346.738C1673.24 346.738 1714.8 346.738 1756.37 346.738C1755.48 306.057 1758.14 265.375 1755.48 225.578C1755.48 208.775 1741.33 199.047 1730.72 188.435L1724.53 189.319C1675.01 180.475 1624.6 186.666 1574.19 184.897C1545.89 185.782 1514.93 181.36 1490.17 198.163C1473.37 211.428 1476.02 234.422 1475.14 252.994C1476.02 298.097 1474.25 343.2 1476.91 388.3C1475.14 433.41 1477.79 479.39 1477.79 525.38Z" fill="#FFC929"></path><path d="M1777.59 568.72C1819.16 568.72 1860.72 568.72 1901.41 568.72C1902.29 520.08 1901.41 471.44 1901.41 422.79C1912.02 422.79 1921.75 422.79 1932.36 422.79C1932.36 471.44 1932.36 520.08 1932.36 569.6C1973.92 569.6 2015.49 569.6 2057.06 569.6C2056.17 442.25 2057.06 314.016 2057.06 186.666C2015.49 185.782 1973.92 185.782 1932.36 186.666C1931.47 236.191 1932.36 285.716 1931.47 336.126C1920.86 333.472 1908.48 336.126 1899.64 329.051C1902.29 281.294 1901.41 233.538 1901.41 186.666C1859.84 186.666 1818.27 186.666 1777.59 186.666C1778.48 291.022 1774.94 395.38 1779.36 499.73C1775.82 521.84 1777.59 544.84 1777.59 568.72Z" fill="#FFC929"></path><path d="M535.046 371.5C534.162 352.928 520.897 336.125 503.209 332.588C462.528 324.628 420.078 331.703 378.512 327.281C380.281 312.247 381.165 297.213 381.165 281.294C390.893 281.294 399.737 281.294 409.465 281.294C410.35 286.6 411.234 298.097 412.118 304.288C453.684 304.288 494.365 305.172 535.931 303.403C535.046 275.103 537.7 246.803 534.162 218.503C529.74 197.278 507.631 186.666 488.175 185.781C439.534 182.244 390.009 185.781 340.484 184.013C316.606 184.897 290.075 181.36 269.734 196.394C256.468 205.238 256.468 222.925 255.584 237.075C255.584 275.103 254.7 313.131 257.353 351.16C250.278 378.575 256.468 415.72 289.19 421.91C328.987 428.1 369.668 423.68 410.35 424.56C410.35 439.6 410.35 454.63 411.234 469.67C401.506 474.97 390.893 471.43 380.281 468.78C380.281 463.48 379.396 453.75 379.396 449.33C338.715 448.44 297.15 448.44 255.584 449.33C256.468 482.93 249.393 517.42 262.659 549.26V556.33C273.271 558.99 283 563.41 293.612 565.18C345.79 570.48 397.968 566.06 450.147 567.83C474.909 566.95 503.209 571.37 523.55 553.68C538.584 537.76 535.046 514.77 535.931 495.31C535.046 454.63 537.7 413.07 535.046 371.5Z" fill="#FFC929"></path><path d="M833.082 578.44C835.735 580.21 840.157 582.87 841.925 584.63C937.438 588.17 1033.83 586.4 1129.35 585.52C1129.35 581.1 1129.35 573.14 1129.35 569.6C1087.78 568.72 1046.22 568.72 1004.65 568.72C1004.65 557.22 1004.65 545.72 1005.53 535.11C1005.53 498.85 1004.65 461.71 1004.65 425.45C994.922 425.45 984.31 425.45 974.582 425.45C973.697 473.2 974.582 520.96 974.582 568.72C934.785 568.72 895.872 569.6 856.075 568.72H849.885C850.769 488.24 849.885 407.76 849.885 327.281C849.885 285.716 848.116 244.15 854.307 203.469C847.232 207.006 841.041 210.544 834.85 214.081C832.197 334.356 832.197 456.4 833.082 578.44Z" fill="#271D08"></path><path d="M44.2188 258.3C99.9343 300.75 159.188 338.778 216.672 377.691C217.556 331.703 217.556 284.831 216.672 238.844C159.188 245.034 100.819 249.456 44.2188 258.3Z" fill="#0875F1"></path><path d="M1004.65 330.819C1004.65 314.016 1004.65 298.097 1004.65 281.294C994.038 281.294 984.31 282.178 973.697 282.178C973.697 296.328 973.697 311.363 974.582 325.513C984.31 328.166 994.038 329.935 1004.65 330.819Z" fill="#2A2004"></path><path d="M821.585 570.48C824.238 572.25 830.428 576.68 833.081 578.44C832.197 456.4 832.197 335.241 833.966 213.197L830.428 214.966C798.591 166.325 730.494 185.781 684.506 200.816C675.663 194.625 666.819 184.897 655.322 184.897C620.831 182.244 586.341 184.897 551.85 184.897C550.966 301.634 550.966 417.49 551.85 534.23C551.85 545.72 550.966 557.22 550.966 568.72C589.878 568.72 629.675 569.6 668.588 568.72H674.778C675.663 473.2 674.778 377.691 675.663 281.294C686.275 281.294 696.003 281.294 706.616 282.178C706.616 375.922 706.616 469.67 705.731 562.53C708.385 562.53 714.575 561.64 718.113 560.76C753.488 555.45 789.747 551.91 821.585 570.48Z" fill="#FFC929"></path><path d="M1399.08 568.72C1419.42 568.72 1444.18 562.53 1452.14 541.3C1459.22 470.55 1453.91 399.8 1455.68 329.051C1415 329.051 1373.43 329.051 1332.75 329.051C1331.87 377.691 1332.75 425.45 1331.87 474.09C1321.26 473.2 1310.64 473.2 1300.03 472.32C1300.92 444.02 1300.92 414.83 1300.03 386.53C1300.03 359.119 1300.03 332.588 1300.03 305.173C1352.21 304.288 1403.5 305.173 1455.68 304.288C1455.68 272.451 1455.68 241.497 1455.68 209.66C1403.5 207.891 1351.33 212.313 1300.03 206.123C1300.03 200.816 1300.03 190.204 1300.03 184.013C1269.08 184.013 1238.12 183.129 1207.17 184.013C1181.52 183.129 1165.61 205.238 1145.27 215.851C1145.27 245.035 1145.27 274.219 1145.27 303.404C1152.34 303.404 1165.61 303.404 1171.8 304.288C1178.87 356.466 1173.57 408.64 1176.22 460.82C1175.33 487.35 1173.57 514.77 1180.64 540.42C1185.95 550.14 1193.91 558.99 1200.98 567.83C1219.55 565.18 1239.01 566.06 1257.58 566.95C1305.34 568.72 1352.21 569.6 1399.08 568.72Z" fill="#FFC929"></path><path d="M841.925 584.63C839.271 582.87 834.85 580.21 833.081 578.44C830.428 576.68 824.237 572.25 821.584 570.48C790.631 551.91 753.487 555.45 718.996 560.76C716.343 560.76 710.153 561.64 706.615 562.53C706.615 566.06 706.615 573.14 706.615 577.56C709.268 578.44 715.459 580.21 718.996 581.1C747.296 580.21 777.365 572.25 804.781 583.75C830.428 594.36 836.618 624.43 847.231 647.43C849.884 649.19 856.075 652.73 858.728 654.5C859.612 649.19 860.496 638.58 860.496 633.28C856.075 616.47 850.768 599.67 841.925 584.63Z" fill="#E785A4"></path><path d="M1157.65 559.87C1155.88 558.1 1153.23 555.45 1151.46 553.68C1153.23 589.94 1154.99 627.97 1139.08 661.58C1137.31 681.03 1135.54 699.6 1134.65 719.06C1138.19 719.06 1146.15 719.06 1150.57 719.06C1162.95 666.88 1151.46 612.93 1157.65 559.87Z" fill="#3F1945"></path><path d="M1260.23 673.07C1267.31 661.58 1273.5 650.08 1280.58 637.7C1278.81 626.2 1277.04 614.7 1275.27 603.21C1266.42 618.24 1257.58 634.16 1246.97 648.31C1252.28 657.15 1255.81 665.11 1260.23 673.07Z" fill="#3F1945"></path><path d="M1149.69 719.06C1154.11 719.06 1162.95 719.06 1167.38 719.06C1169.14 677.49 1164.72 635.04 1170.91 593.48C1171.8 589.94 1174.45 581.98 1176.22 577.56C1170.03 571.37 1163.84 566.06 1157.65 559.87C1151.46 612.94 1162.95 666.88 1149.69 719.06Z" fill="#F2EDFD"></path><path d="M1442.42 659.81C1431.8 647.43 1422.96 632.39 1407.92 624.43C1385.82 623.55 1363.71 633.27 1341.6 634.16C1321.26 635.04 1300.92 635.93 1280.57 638.58C1273.5 650.08 1267.31 662.46 1260.23 673.96C1255.81 666 1251.39 658.04 1246.97 649.19C1256.7 634.16 1266.42 619.13 1275.27 604.09L1271.73 597.02C1266.42 587.29 1262 577.56 1257.58 566.95C1239.01 566.06 1219.55 565.18 1200.98 567.83C1193.02 571.37 1184.18 574.02 1176.22 577.56C1175.33 581.1 1172.68 589.06 1170.91 593.48C1177.1 616.47 1189.48 639.47 1185.06 664.23C1179.76 693.41 1173.57 722.6 1169.14 752.67C1157.65 741.17 1146.15 730.56 1133.77 719.06C1134.65 699.6 1136.42 681.03 1138.19 661.58L1130.23 655.38C1114.31 653.62 1098.39 651.85 1082.47 656.27C1073.63 663.34 1067.44 673.07 1061.25 683.68C1057.71 691.64 1054.17 699.6 1049.75 707.56C1048.87 709.33 1046.22 713.75 1045.33 716.41C1041.79 719.06 1033.83 723.48 1030.3 726.13C1038.26 748.24 1026.76 768.58 1015.26 787.16C1013.49 764.16 1012.61 739.4 1024.99 719.06C1023.22 716.41 1018.8 710.22 1017.03 706.68C1010.84 697.83 1005.53 689.87 999.344 681.03C971.044 681.03 943.628 680.15 915.328 681.92C903.831 689.88 892.334 698.72 880.837 707.56C879.069 711.98 875.531 719.94 873.762 724.37C858.728 750.01 850.769 778.31 837.503 803.96C833.965 805.73 826.006 810.15 822.469 811.92C783.556 826.95 724.303 835.8 702.194 790.69C688.044 750.01 686.275 698.72 711.922 662.46C725.187 643 748.181 636.81 769.406 632.39C769.406 642.12 770.29 651.85 770.29 661.58C770.29 666.88 770.29 677.49 771.175 682.8C783.556 696.95 800.359 715.52 820.7 707.56C846.347 703.14 852.537 675.72 855.19 654.5C852.537 652.73 846.347 649.19 843.694 647.42C837.503 668.65 827.775 701.37 798.59 690.76C789.747 668.65 790.631 641.23 775.597 621.78C750.834 614.7 722.534 624.43 704.847 643C672.125 679.26 666.819 734.09 677.431 780.08C685.39 812.8 713.69 840.22 748.181 841.1C785.325 841.99 827.775 836.68 856.075 811.03C871.994 775.66 872.878 730.56 908.253 706.68C933.015 685.45 967.506 698.72 995.806 703.14C995.806 741.17 994.922 779.2 997.575 818.11C1053.29 791.58 1057.71 723.48 1080.71 673.07C1091.32 672.19 1101.93 671.3 1112.54 670.42C1113.43 690.76 1109.89 712.87 1122.27 730.56C1136.42 752.67 1154.11 773.01 1170.03 793.35C1192.14 757.97 1185.06 714.64 1193.91 675.72C1196.56 658.92 1217.78 659.81 1230.17 655.38C1231.93 701.37 1226.63 748.24 1239.01 793.35C1249.62 783.62 1262 774.78 1269.08 761.51C1278.81 727.9 1268.19 689.87 1285 658.04C1295.61 652.73 1307.11 649.19 1317.72 644.77C1318.6 666 1318.6 687.22 1318.6 708.45C1332.75 685.45 1344.25 659.81 1367.24 644.77C1380.51 636.81 1401.73 630.62 1408.81 649.19C1416.77 688.11 1407.04 728.79 1411.46 768.58C1422.07 760.62 1438.88 757.09 1441.53 742.05C1448.61 708.45 1442.42 668.65 1468.06 642.12C1494.59 612.05 1549.42 612.93 1571.53 648.31C1598.07 690.76 1590.99 758.86 1543.23 783.62C1517.59 798.65 1488.4 785.39 1461.87 778.31C1437.11 794.23 1406.16 815.46 1376.97 796.88C1361.94 765.05 1368.13 728.79 1362.82 694.3C1336.29 728.79 1330.98 772.12 1323.02 812.8C1300.03 811.03 1277.92 810.15 1255.81 816.34C1232.82 823.42 1209.82 815.46 1186.83 817.22C1156.76 825.18 1131.12 845.52 1100.16 848.18C1087.78 848.18 1070.98 844.64 1070.09 828.72C1063.9 803.96 1096.62 800.42 1110.77 788.92C1102.82 777.43 1093.97 765.93 1085.13 755.32C1066.56 787.16 1050.64 824.3 1018.8 846.41C1000.23 858.79 979.003 844.64 960.431 838.45C947.165 847.29 933.9 858.79 917.981 862.33C894.987 861.44 871.994 849.95 849.884 860.56C808.319 877.36 762.331 888.86 717.228 880.9C672.125 874.71 634.097 836.68 623.484 792.46C611.103 742.05 616.409 686.34 643.825 641.23C660.628 614.7 686.275 596.13 711.922 577.56C709.269 576.68 703.078 574.91 699.54 574.02C684.506 579.33 671.24 586.4 657.09 592.59C622.6 611.17 582.803 604.09 545.659 604.09C550.081 607.63 553.619 610.28 558.04 613.82C586.34 605.86 615.525 605.86 643.825 607.63C634.981 623.55 625.253 639.47 615.525 655.38C614.64 657.15 611.987 661.57 611.103 663.34C597.837 724.37 594.3 791.58 627.022 847.29C654.437 875.59 690.697 897.7 731.378 900.36C771.175 904.78 810.087 893.28 847.231 880.9C875.531 870.29 906.484 885.32 934.784 875.59C954.24 869.4 975.465 866.75 995.806 867.63C1017.03 869.4 1034.72 857.91 1053.29 848.18C1069.21 856.14 1086.01 867.63 1104.58 865.87C1138.19 862.33 1165.61 835.8 1199.21 836.68C1240.78 841.1 1282.34 832.26 1323.02 827.84C1338.94 816.34 1344.25 796 1353.98 779.2C1353.98 790.69 1354.86 802.19 1354.86 813.69L1359.28 814.57C1380.51 817.23 1402.62 824.3 1422.96 816.34C1441.53 811.03 1458.33 798.65 1478.67 803.08C1504.32 805.73 1532.62 811.92 1555.62 796C1595.41 771.24 1606.91 719.94 1601.6 676.61C1595.41 655.38 1584.8 635.93 1571.53 619.12C1547.66 603.21 1517.59 601.44 1490.17 597.02C1477.79 619.12 1459.22 638.58 1442.42 659.81ZM1197.44 629.74C1179.76 612.05 1193.91 580.21 1217.78 578.44C1235.47 573.14 1254.04 585.52 1251.39 604.97C1253.16 633.27 1217.78 639.47 1197.44 629.74ZM1253.16 765.05C1250.51 734.98 1245.2 701.37 1262 673.96C1264.66 704.91 1271.73 738.52 1253.16 765.05Z" fill="#E279EF"></path><path d="M803.896 582.87C776.481 571.37 746.412 579.33 718.112 580.21C693.35 597.9 666.818 616.47 650.015 643.89C622.6 688.99 617.293 744.71 629.675 795.12C640.287 839.34 678.315 876.48 723.418 883.55C768.521 891.51 813.625 880.02 856.075 863.21C878.184 852.6 901.178 864.1 924.171 864.98C940.09 861.45 952.471 849.95 966.621 841.1C985.193 846.41 1006.42 861.45 1024.99 849.06C1056.83 827.84 1072.75 790.7 1091.32 757.97C1100.16 769.47 1108.12 780.08 1116.97 791.58C1102.82 803.08 1070.09 806.61 1076.28 831.38C1077.17 846.41 1093.97 849.95 1106.35 850.83C1137.31 848.18 1162.95 827.84 1193.02 819.88C1216.02 818.11 1239.01 826.07 1262 819C1284.11 812.8 1307.11 813.69 1329.22 815.46C1337.17 774.78 1343.37 730.56 1369.01 696.95C1374.32 730.56 1368.13 767.7 1383.16 799.54C1412.35 818.11 1443.3 796.89 1468.06 780.97C1494.59 788.04 1523.78 800.42 1549.42 786.27C1597.18 761.51 1603.37 693.41 1577.72 650.96C1555.62 616.47 1500.78 614.7 1474.25 644.77C1447.72 671.3 1453.91 711.1 1447.72 744.71C1445.95 759.74 1428.27 763.28 1417.65 771.24C1413.23 731.44 1422.96 690.76 1415 651.85C1408.81 633.28 1386.7 639.47 1373.43 647.43C1350.44 662.46 1338.94 688.11 1324.79 711.1C1324.79 689.88 1324.79 668.65 1323.91 647.43C1312.41 651.85 1300.92 655.39 1291.19 660.69C1275.27 692.53 1285.88 730.56 1275.27 764.16C1268.19 776.54 1255.81 785.39 1245.2 796C1231.93 750.9 1238.12 704.03 1236.36 658.04C1223.97 663.35 1202.75 661.58 1200.1 678.38C1190.37 717.29 1198.33 760.63 1176.22 796C1160.3 774.78 1142.61 755.32 1128.46 733.21C1116.08 715.52 1119.62 693.41 1118.73 673.07C1108.12 673.96 1097.51 674.84 1086.9 675.73C1063.9 726.14 1059.48 794.23 1003.77 820.76C1001.11 782.74 1002 744.71 1002 705.8C973.696 701.37 940.09 688.11 914.443 709.33C879.068 733.21 877.3 778.31 862.265 813.69C833.081 839.34 791.515 844.64 754.371 843.76C719.881 842.87 690.696 815.46 683.621 782.74C672.125 736.75 677.431 681.92 711.037 645.66C728.725 627.09 756.14 616.47 781.787 624.43C796.821 643.89 795.937 670.42 804.781 693.41C833.965 704.91 843.693 671.3 849.884 650.08C836.618 623.55 830.428 593.48 803.896 582.87ZM1505.21 666C1513.17 658.92 1526.43 659.81 1533.51 667.77C1547.66 681.92 1548.54 704.03 1546.77 722.6C1545 739.4 1530.85 760.63 1511.4 751.78C1486.63 732.33 1487.52 689.88 1505.21 666ZM956.893 721.71C956.893 752.67 958.662 785.39 948.05 815.46C943.628 827.84 926.825 834.03 917.981 822.53C903.831 785.39 919.75 739.4 956.893 721.71Z" fill="#FEFBFE"></path><path d="M1217.78 578.44C1193.02 580.21 1179.76 611.17 1197.44 629.74C1217.78 639.47 1253.16 632.39 1251.39 604.98C1254.93 586.4 1235.47 573.14 1217.78 578.44Z" fill="#FEFAFE"></path><path d="M1129.35 585.52C1033.83 586.4 937.437 588.17 841.925 584.63C849.884 599.67 856.075 616.47 859.612 633.28C863.15 649.19 866.687 665.11 870.225 681.03C885.259 681.92 901.178 682.8 916.212 682.8C944.512 680.15 971.928 681.03 1000.23 681.92C1020.57 681.92 1041.79 681.92 1062.13 683.68C1067.44 673.07 1073.63 663.34 1083.36 656.27C1099.28 651.85 1115.2 654.5 1131.12 655.38C1129.35 632.39 1129.35 608.51 1129.35 585.52Z" fill="#FFC929"></path><path d="M1168.26 719.06C1163.84 719.06 1154.99 719.06 1150.57 719.06C1147.03 719.06 1139.08 719.06 1134.65 719.06C1146.15 729.67 1158.53 741.17 1170.03 752.67C1174.45 723.48 1181.53 693.41 1185.95 664.23C1190.37 639.47 1177.99 616.47 1171.8 593.48C1164.72 635.04 1169.14 677.49 1168.26 719.06Z" fill="#4C72DC"></path><path d="M1341.6 633.28C1363.71 632.39 1384.93 623.55 1407.93 623.55C1422.08 632.39 1431.8 646.54 1442.42 658.92C1459.22 637.7 1477.79 617.36 1496.36 597.02C1483.1 595.25 1468.95 591.71 1454.8 595.25C1396.43 611.17 1335.41 612.05 1276.15 602.32C1277.92 613.82 1279.69 625.32 1281.46 636.81C1300.92 635.04 1321.26 634.16 1341.6 633.28Z" fill="#3087EE"></path><path d="M565.115 616.47C583.687 630.62 603.143 643.89 622.6 657.15C632.328 641.23 641.171 625.32 650.9 609.4C621.715 607.63 592.531 607.63 565.115 616.47Z" fill="#1565F5"></path><path d="M860.497 633.28C859.613 638.58 858.728 649.19 858.728 654.5C856.075 675.73 849.884 704.02 824.238 707.56C803.013 715.52 787.094 696.95 774.713 682.8C761.447 680.15 748.181 678.38 735.8 675.72C748.181 670.42 761.447 666 774.713 661.58C774.713 651.85 773.828 642.12 773.828 632.39C752.603 636.81 728.725 643 716.344 662.46C689.813 698.72 691.581 750.01 706.616 790.69C706.616 771.24 707.5 750.9 710.153 731.44C710.153 728.79 711.922 721.71 711.922 719.06C712.806 717.29 714.575 713.75 715.459 711.1C717.228 708.45 719.881 703.14 721.65 700.49C746.413 704.91 772.944 703.14 795.053 717.29C805.666 723.48 816.278 731.44 828.659 733.21C842.809 734.98 853.422 722.6 863.15 713.75C869.341 706.68 876.416 704.02 885.259 706.68C896.756 697.83 908.253 688.99 919.75 681.03C904.716 681.03 888.797 680.15 873.763 679.26C867.572 665.11 864.034 649.19 860.497 633.28Z" fill="#3D2033"></path><path d="M773.828 683.68C773.828 678.38 773.828 667.77 772.944 662.46C759.678 666.88 747.297 671.3 734.031 676.61C747.297 678.38 760.562 681.03 773.828 683.68Z" fill="#D2A977"></path><path d="M1511.4 751.78C1530.85 760.62 1545 740.28 1546.77 722.6C1548.54 704.02 1548.54 681.92 1533.51 667.77C1526.43 659.81 1513.17 658.92 1505.21 666C1487.52 689.87 1486.63 732.32 1511.4 751.78ZM1517.59 673.07C1521.13 683.68 1533.51 696.07 1527.32 707.56C1537.93 714.64 1529.97 737.63 1516.7 734.09L1514.05 730.56C1508.74 711.98 1507.86 691.64 1517.59 673.07Z" fill="#DB7EE2"></path><path d="M1017.92 707.56C1029.41 707.56 1040.02 708.45 1051.52 708.45C1055.06 700.49 1058.6 692.53 1063.02 684.57C1042.68 683.69 1021.45 682.8 1001.11 682.8C1006.42 689.88 1012.61 698.72 1017.92 707.56Z" fill="#362021"></path><path d="M1253.16 765.05C1271.73 738.52 1263.77 704.03 1262 673.96C1245.2 701.37 1250.51 734.98 1253.16 765.05Z" fill="#9F31A4"></path><path d="M1527.32 708.45C1533.51 696.95 1521.13 684.57 1517.59 673.96C1507.86 692.53 1507.86 712.87 1514.05 732.33C1518.47 723.48 1522.89 715.52 1527.32 708.45Z" fill="#712474"></path><path d="M1561.81 797.77C1538.81 813.69 1510.51 807.5 1484.87 804.84C1465.41 801.31 1447.72 813.69 1429.15 818.11C1408.81 826.07 1386.7 818.99 1365.47 816.34C1376.97 829.61 1387.58 846.41 1406.16 849.95C1433.57 855.25 1458.33 841.1 1479.56 826.07C1507.86 836.68 1540.58 842.87 1568 826.07C1619.29 798.65 1630.79 727.02 1606.91 677.49C1613.1 721.71 1601.6 773.01 1561.81 797.77Z" fill="#3C1F3F"></path><path d="M859.612 715.52C863.15 718.17 871.109 722.6 875.531 725.25C877.3 720.83 880.837 712.87 882.606 708.45C872.878 705.79 865.803 708.45 859.612 715.52Z" fill="#ECD0FF"></path><path d="M1026.76 719.06L1032.07 726.13C1035.6 723.48 1043.56 719.06 1047.1 716.41C1047.98 714.64 1050.64 710.22 1051.52 707.56C1040.03 707.56 1029.41 707.56 1017.92 706.68C1020.57 710.22 1024.11 716.41 1026.76 719.06Z" fill="#EBD3FF"></path><path d="M1516.7 734.98C1529.97 738.52 1537.93 715.52 1527.32 708.45C1522.89 716.41 1517.59 723.48 1514.05 732.33L1516.7 734.98Z" fill="#521C54"></path><path d="M825.122 734.98C812.74 733.21 802.128 725.25 791.515 719.06C764.984 722.6 738.453 718.18 712.806 712.87C711.922 714.64 710.153 718.18 709.269 720.83C754.372 745.59 795.053 778.31 838.387 805.73C852.537 780.08 859.612 750.9 874.647 726.13C871.109 723.48 863.15 719.06 858.728 716.41C849.884 724.37 840.156 736.75 825.122 734.98Z" fill="#1467EB"></path><path d="M948.05 815.46C958.663 785.39 956.01 752.67 956.894 721.71C920.635 739.4 903.832 785.39 917.982 823.42C926.825 834.03 943.629 827.84 948.05 815.46ZM931.247 779.2C943.629 778.31 941.86 805.73 930.363 804.84C924.172 798.65 924.172 786.27 931.247 779.2Z" fill="#E778F2"></path><path d="M1017.03 787.16C1028.53 768.59 1040.02 748.24 1032.07 726.14L1026.76 719.06C1013.49 740.29 1014.38 764.16 1017.03 787.16Z" fill="#502981"></path><path d="M931.247 779.2C924.172 785.39 924.172 798.65 930.362 804.84C941.859 805.73 943.628 779.2 931.247 779.2Z" fill="#92249B"></path><path d="M1329.22 830.49C1288.53 834.91 1246.97 842.87 1205.4 839.33C1171.8 838.45 1144.38 864.98 1110.78 868.52C1092.2 870.29 1075.4 858.79 1059.48 850.83C1041.79 860.56 1023.22 872.06 1002 870.29C981.657 869.4 960.432 871.17 940.975 878.25C912.675 887.98 881.722 872.94 853.422 883.55C816.279 895.93 777.366 908.32 737.569 903.01C697.772 899.47 661.513 878.25 633.213 849.95C644.71 875.59 663.282 899.47 688.929 912.74C724.304 933.08 765.869 932.19 805.666 929.54C833.966 925.12 859.613 911.85 886.144 904.78C910.022 908.32 935.669 920.7 957.779 905.66C960.432 904.78 966.622 901.24 969.275 900.36C1002.88 902.13 1037.37 900.36 1067.44 882.67C1086.9 888.86 1105.47 897.7 1126.69 896.82C1154.99 891.51 1179.76 873.83 1208.94 869.4C1232.82 868.52 1256.7 872.94 1281.46 874.71C1286.77 870.29 1292.07 864.98 1296.49 859.67C1300.92 860.56 1310.64 862.33 1315.07 863.21C1342.48 870.29 1365.48 843.76 1361.94 817.22C1361.94 805.73 1361.94 794.23 1361.05 782.73C1350.44 798.65 1345.13 818.99 1329.22 830.49Z" fill="#422143"></path><path d="M1280.58 872.94C1256.7 871.17 1232.82 865.87 1208.06 867.64C1178.87 872.06 1154.99 889.74 1125.81 895.05C1105.47 896.82 1086.01 887.09 1066.56 880.9C1036.49 898.59 1002 900.36 968.391 898.59C1025.88 930.43 1076.28 972.88 1132 1007.37C1182.41 962.26 1232.82 918.04 1280.58 872.94Z" fill="#0A6AF4"></path></svg> 